<svg width="103" height="26" viewBox="0 0 103 26" fill="none" xmlns="http://www.w3.org/2000/svg">
<g clip-path="url(#clip0)">
<path d="M65.9629 25.75H61.6211C61.2295 25.75 60.8539 25.5945 60.5767 25.3178C60.2995 25.0411 60.1435 24.6657 60.1429 24.2741V12.7939L52.5133 17.5624C52.1998 17.7598 51.837 17.8645 51.4666 17.8645C51.0962 17.8645 50.7333 17.7598 50.4199 17.5624L42.7903 12.7939V24.2741C42.7896 24.6657 42.6336 25.0411 42.3564 25.3178C42.0793 25.5945 41.7037 25.75 41.312 25.75H36.987C36.5955 25.75 36.2202 25.5945 35.9434 25.3177C35.6666 25.0409 35.5111 24.6655 35.5111 24.2741V2.14579C35.512 1.78783 35.6104 1.43687 35.7958 1.13065C35.9811 0.824422 36.2465 0.574516 36.5633 0.407795C36.88 0.241073 37.2362 0.163842 37.5936 0.184405C37.951 0.204967 38.296 0.322545 38.5916 0.524497L50.6416 8.78119C50.8876 8.94899 51.1784 9.03875 51.4761 9.03875C51.7738 9.03875 52.0647 8.94899 52.3106 8.78119L64.3583 0.524497C64.6538 0.322545 64.9988 0.204967 65.3562 0.184405C65.7136 0.163842 66.0698 0.241073 66.3866 0.407795C66.7033 0.574516 66.9687 0.824422 67.1541 1.13065C67.3394 1.43687 67.4379 1.78783 67.4387 2.14579V24.2717C67.439 24.4657 67.4011 24.6579 67.3271 24.8372C67.253 25.0166 67.1444 25.1796 67.0073 25.3169C66.8702 25.4541 66.7074 25.5631 66.5282 25.6374C66.349 25.7117 66.1569 25.75 65.9629 25.75Z" fill="#fff"/>
<path d="M28.9997 25.7047H1.9694C1.44708 25.7047 0.946157 25.4972 0.576823 25.1279C0.20749 24.7585 0 24.2576 0 23.7353L0 1.47586C0 1.08443 0.155492 0.709045 0.432268 0.432268C0.709045 0.155492 1.08443 0 1.47586 0L5.81998 0C6.2114 0 6.58679 0.155492 6.86356 0.432268C7.14034 0.709045 7.29583 1.08443 7.29583 1.47586V18.4041H23.6733V1.47586C23.6733 1.08443 23.8288 0.709045 24.1056 0.432268C24.3824 0.155492 24.7577 0 25.1492 0L29.4909 0C29.8825 -5.09418e-07 30.2582 0.155415 30.5353 0.432123C30.8125 0.708832 30.9685 1.08422 30.9691 1.47586V23.7353C30.9691 24.2576 30.7617 24.7585 30.3923 25.1279C30.023 25.4972 29.5221 25.7047 28.9997 25.7047Z" fill="#fff"/>
<path d="M73.9502 0H100.981C101.503 0 102.004 0.20749 102.373 0.576823C102.742 0.946157 102.95 1.44708 102.95 1.9694V24.2265C102.95 24.4205 102.912 24.6126 102.838 24.792C102.764 24.9713 102.656 25.1343 102.518 25.2716C102.381 25.4089 102.219 25.5178 102.039 25.5921C101.86 25.6664 101.668 25.7047 101.474 25.7047H97.1299C96.9359 25.7047 96.7438 25.6664 96.5646 25.5921C96.3854 25.5178 96.2226 25.4089 96.0855 25.2716C95.9484 25.1343 95.8398 24.9713 95.7657 24.792C95.6917 24.6126 95.6538 24.4205 95.6541 24.2265V8.28053C95.6541 8.01937 95.5503 7.76891 95.3657 7.58424C95.181 7.39958 94.9305 7.29583 94.6694 7.29583H80.2637C80.1343 7.29552 80.0061 7.32077 79.8865 7.37015C79.7669 7.41952 79.6582 7.49204 79.5667 7.58354C79.4752 7.67504 79.4027 7.78372 79.3533 7.90333C79.3039 8.02294 79.2787 8.15113 79.279 8.28053V24.2265C79.279 24.6185 79.1232 24.9945 78.846 25.2717C78.5688 25.549 78.1928 25.7047 77.8007 25.7047H73.459C73.265 25.7047 73.0729 25.6664 72.8937 25.5921C72.7145 25.5178 72.5517 25.4089 72.4146 25.2716C72.2775 25.1343 72.1688 24.9713 72.0948 24.792C72.0208 24.6126 71.9828 24.4205 71.9832 24.2265V1.9694C71.9828 1.71089 72.0335 1.45485 72.1322 1.21592C72.2309 0.976998 72.3758 0.759874 72.5584 0.576968C72.7411 0.394061 72.9581 0.248959 73.1969 0.149958C73.4357 0.050957 73.6917 -1.89908e-07 73.9502 0V0Z" fill="#fff"/>
<path d="M89.6361 11.9762H85.2968C84.4817 11.9762 83.8209 12.637 83.8209 13.4521V17.8653C83.8209 18.6804 84.4817 19.3412 85.2968 19.3412H89.6361C90.4512 19.3412 91.112 18.6804 91.112 17.8653V13.4521C91.112 12.637 90.4512 11.9762 89.6361 11.9762Z" fill="#fff"/>
</g>
<defs>
<clipPath id="clip0">
<rect width="103" height="25.75" fill="white"/>
</clipPath>
</defs>
</svg>
