<svg width="25" height="26" viewBox="0 0 25 26" fill="none" xmlns="http://www.w3.org/2000/svg">
<path fill-rule="evenodd" clip-rule="evenodd" d="M10.5987 11.0261C10.02 11.0261 9.5632 11.5567 9.5632 12.2041C9.5632 12.8514 10.0302 13.382 10.5987 13.382C11.1774 13.382 11.6342 12.8514 11.6342 12.2041C11.6444 11.5567 11.1774 11.0261 10.5987 11.0261ZM14.3042 11.0261C13.7255 11.0261 13.2687 11.5567 13.2687 12.2041C13.2687 12.8514 13.7357 13.382 14.3042 13.382C14.8829 13.382 15.3397 12.8514 15.3397 12.2041C15.3397 11.5567 14.8829 11.0261 14.3042 11.0261Z" fill="white"/>
<path d="M19.2381 2.12244H5.63437C4.48719 2.12244 3.55321 3.09876 3.55321 4.30856V18.6563C3.55321 19.8661 4.48719 20.8424 5.63437 20.8424H17.1468L16.6087 18.8792L17.9082 20.142L19.1366 21.3306L21.3192 23.3469V4.30856C21.3192 3.09876 20.3853 2.12244 19.2381 2.12244ZM15.3194 15.982C15.3194 15.982 14.9539 15.5257 14.6494 15.1224C15.9793 14.7298 16.4869 13.8596 16.4869 13.8596C16.0706 14.1461 15.6747 14.3477 15.3194 14.4857C14.8118 14.7086 14.3245 14.8571 13.8474 14.942C12.8728 15.133 11.9794 15.08 11.218 14.9314C10.6393 14.8147 10.1419 14.6449 9.72564 14.4751C9.49214 14.3796 9.23834 14.2628 8.98454 14.1143C8.95408 14.093 8.92363 14.0824 8.89317 14.0612C8.87287 14.0506 8.86271 14.04 8.85256 14.0294C8.66983 13.9233 8.56831 13.849 8.56831 13.849C8.56831 13.849 9.0556 14.6979 10.3449 15.1012C10.0403 15.5045 9.66472 15.982 9.66472 15.982C7.42113 15.9077 6.56836 14.369 6.56836 14.369C6.56836 10.9518 8.03025 8.18203 8.03025 8.18203C9.49214 7.0359 10.883 7.06774 10.883 7.06774L10.9845 7.19509C9.15712 7.74693 8.31451 8.58529 8.31451 8.58529C8.31451 8.58529 8.53785 8.45795 8.91348 8.27754C9.99974 7.77876 10.8627 7.6408 11.218 7.60897C11.2789 7.59835 11.3297 7.58774 11.3906 7.58774C12.0098 7.50284 12.7103 7.48162 13.4413 7.56652C14.4057 7.68325 15.4412 7.98039 16.497 8.58529C16.497 8.58529 15.695 7.78937 13.9692 7.23754L14.1113 7.06774C14.1113 7.06774 15.5021 7.0359 16.964 8.18203C16.964 8.18203 18.4259 10.9518 18.4259 14.369C18.4259 14.369 17.563 15.9077 15.3194 15.982Z" fill="white"/>
</svg>
