<svg width="20" height="20" viewBox="0 0 20 20" fill="none" xmlns="http://www.w3.org/2000/svg">
<path d="M8.23999 8.39001C7.66999 8.39001 7.21999 8.89001 7.21999 9.50001C7.21999 10.11 7.67999 10.61 8.23999 10.61C8.80999 10.61 9.25999 10.11 9.25999 9.50001C9.26999 8.89001 8.80999 8.39001 8.23999 8.39001ZM11.89 8.39001C11.32 8.39001 10.87 8.89001 10.87 9.50001C10.87 10.11 11.33 10.61 11.89 10.61C12.46 10.61 12.91 10.11 12.91 9.50001C12.91 8.89001 12.46 8.39001 11.89 8.39001Z" fill="#7289DA"/>
<path d="M16.75 0H3.35C2.22 0 1.3 0.92 1.3 2.06V15.58C1.3 16.72 2.22 17.64 3.35 17.64H14.69L14.16 15.79L15.44 16.98L16.65 18.1L18.8 20V2.06C18.8 0.92 17.88 0 16.75 0ZM12.89 13.06C12.89 13.06 12.53 12.63 12.23 12.25C13.54 11.88 14.04 11.06 14.04 11.06C13.63 11.33 13.24 11.52 12.89 11.65C12.39 11.86 11.91 12 11.44 12.08C10.48 12.26 9.6 12.21 8.85 12.07C8.28 11.96 7.79 11.8 7.38 11.64C7.15 11.55 6.9 11.44 6.65 11.3C6.62 11.28 6.59 11.27 6.56 11.25C6.54 11.24 6.53 11.23 6.52 11.22C6.34 11.12 6.24 11.05 6.24 11.05C6.24 11.05 6.72 11.85 7.99 12.23C7.69 12.61 7.32 13.06 7.32 13.06C5.11 12.99 4.27 11.54 4.27 11.54C4.27 8.32 5.71 5.71 5.71 5.71C7.15 4.63 8.52 4.66 8.52 4.66L8.62 4.78C6.82 5.3 5.99 6.09 5.99 6.09C5.99 6.09 6.21 5.97 6.58 5.8C7.65 5.33 8.5 5.2 8.85 5.17C8.91 5.16 8.96 5.15 9.02 5.15C9.63 5.07 10.32 5.05 11.04 5.13C11.99 5.24 13.01 5.52 14.05 6.09C14.05 6.09 13.26 5.34 11.56 4.82L11.7 4.66C11.7 4.66 13.07 4.63 14.51 5.71C14.51 5.71 15.95 8.32 15.95 11.54C15.95 11.54 15.1 12.99 12.89 13.06Z" fill="#7289DA"/>
</svg>
