<svg width="26" height="26" viewBox="0 0 26 26" fill="none" xmlns="http://www.w3.org/2000/svg">
<path opacity="0.5" d="M13.0764 4.14282C8.15045 4.14282 4 8.10041 4 12.9861C4 13.1428 4.00402 22.1428 4.00402 22.1428L13.0764 22.1348C18.0062 22.1348 22 18.0245 22 13.1389C22 8.25309 18.0062 4.14282 13.0764 4.14282ZM13 18.2857C12.2205 18.2857 11.4772 18.1129 10.8142 17.7995L7.5558 18.6071L8.47589 15.5937C8.08214 14.8665 7.85714 14.0308 7.85714 13.1428C7.85714 10.3022 10.1594 7.99996 13 7.99996C15.8406 7.99996 18.1428 10.3022 18.1428 13.1428C18.1428 15.9834 15.8406 18.2857 13 18.2857Z" fill="#425466"/>
</svg>
