<svg width="26" height="26" viewBox="0 0 26 26" fill="none" xmlns="http://www.w3.org/2000/svg">
<path d="M13.2461 5.14282C9.05736 5.14282 5.52806 8.66068 5.52806 13.0035C5.52806 13.1428 5.53148 21.1428 5.53148 21.1428L13.2461 21.1357C17.4381 21.1357 20.8342 17.4821 20.8342 13.1393C20.8342 8.79639 17.4381 5.14282 13.2461 5.14282ZM13.1811 17.7143C12.5183 17.7143 11.8862 17.5607 11.3225 17.2821L8.5517 18L9.33409 15.3214C8.99927 14.675 8.80794 13.9321 8.80794 13.1428C8.80794 10.6178 10.7656 8.57139 13.1811 8.57139C15.5966 8.57139 17.5543 10.6178 17.5543 13.1428C17.5543 15.6678 15.5966 17.7143 13.1811 17.7143Z" fill="white"/>
</svg>
