<svg width="26" height="26" viewBox="0 0 26 26" fill="none" xmlns="http://www.w3.org/2000/svg">
<path fill-rule="evenodd" clip-rule="evenodd" d="M5.40051 13.334C5.40029 16.9216 7.59643 20.1067 10.8524 21.241C11.2513 21.317 11.3967 21.06 11.3967 20.839C11.3967 20.641 11.39 20.117 11.3862 19.422C9.16869 19.925 8.70089 18.305 8.70089 18.305C8.33737 17.342 7.81505 17.085 7.81505 17.085C7.09088 16.569 7.86958 16.579 7.86958 16.579C8.67028 16.638 9.0912 17.438 9.0912 17.438C9.80198 18.711 10.9566 18.343 11.411 18.13C11.4837 17.592 11.6894 17.225 11.918 17.016C10.1473 16.806 8.28572 16.091 8.28572 12.898C8.28572 11.988 8.59662 11.244 9.10651 10.662C9.02424 10.451 8.75064 9.60299 9.18495 8.45599C9.18495 8.45599 9.85459 8.23199 11.3766 9.31099C12.0273 9.12556 12.6987 9.03107 13.3731 9.02999C14.0471 9.03093 14.7182 9.12508 15.3686 9.30999C16.8897 8.23199 17.5593 8.45599 17.5593 8.45599C17.9936 9.60299 17.72 10.451 17.6378 10.662C18.1495 11.244 18.4576 11.988 18.4576 12.898C18.4576 16.099 16.5931 16.804 14.8176 17.01C15.1036 17.267 15.3591 17.776 15.3591 18.553C15.3591 19.667 15.3495 20.566 15.3495 20.839C15.3495 21.062 15.493 21.321 15.8967 21.24C19.7597 19.8925 22.0302 15.7182 21.1627 11.559C20.295 7.39967 16.5681 4.59249 12.5191 5.04846C8.47016 5.50443 5.40077 9.07696 5.40051 13.334Z" fill="white"/>
</svg>
