<svg width="77" height="24" viewBox="0 0 77 24" fill="none" xmlns="http://www.w3.org/2000/svg">
<path d="M6.34326 17.3137L17.657 6.00001" stroke="#14142B" stroke-width="2" stroke-linecap="round"/>
<path d="M6.34326 6L17.657 17.3137" stroke="#14142B" stroke-width="2" stroke-linecap="round"/>
<path d="M37.632 18H38.864V12.304L38.72 8.336H38.8L39.84 11.248L42.512 18H43.568L46.272 11.104L47.232 8.336H47.328L47.216 12.304V18H48.448V7.488H46.4L43.488 15.136L43.104 16.832H43.024L42.592 15.136L39.68 7.488H37.632V18ZM54.5741 18.16C56.0621 18.16 57.0221 17.52 57.5981 16.688L56.7501 16.096C56.3661 16.704 55.6621 17.168 54.6381 17.168C53.1821 17.168 52.2381 16.24 52.1581 14.288H57.8541C57.8701 14.24 57.8701 13.776 57.8701 13.68C57.8861 11.52 56.9101 9.904 54.5421 9.904C52.3501 9.904 50.8941 11.424 50.8941 14.032C50.8781 16.608 52.2221 18.16 54.5741 18.16ZM54.4941 10.864C55.9821 10.864 56.5901 11.808 56.5901 13.328V13.44H52.1741C52.2861 11.6 53.2781 10.864 54.4941 10.864ZM61.3591 10.08H60.1271V18H61.3911V14.064C61.4551 12.16 62.5111 11.008 63.7911 11.008C64.8471 11.008 65.3911 11.68 65.3911 13.168V18H66.6711V12.912C66.6711 11.024 65.8871 9.92 64.2871 9.92C62.7191 9.92 61.6951 11.168 61.3751 12.384H61.2951C61.2951 12.384 61.3591 11.328 61.3591 11.2V10.08ZM71.712 18.144C73.36 18.144 74.192 16.608 74.32 15.76H74.4L74.352 17.136V18H75.552V10.08H74.272V14.192C74.176 15.904 73.28 17.056 72.08 17.056C70.992 17.056 70.544 16.432 70.544 14.96V10.08H69.264V15.12C69.264 17.04 70 18.128 71.712 18.144Z" fill="black"/>
</svg>
