<svg width="26" height="26" viewBox="0 0 26 26" fill="none" xmlns="http://www.w3.org/2000/svg">
<path fill-rule="evenodd" clip-rule="evenodd" d="M19.2704 9.056C19.8955 8.63145 20.3549 7.9874 20.5657 7.24C19.9927 7.62 19.3594 7.89 18.6955 8.036C18.156 7.38246 17.3727 7.00471 16.5469 7C14.9206 7 13.6024 8.469 13.6024 10.282C13.6024 10.533 13.6282 10.784 13.6799 11.029C11.2328 10.893 9.06314 9.587 7.61097 7.601C7.34773 8.10728 7.21085 8.67477 7.21301 9.251C7.21301 10.389 7.73151 11.394 8.52169 11.982C8.05123 11.9649 7.59254 11.8239 7.18814 11.572V11.613C7.18814 13.203 8.20409 14.53 9.55103 14.831C9.11866 14.9617 8.66247 14.9813 8.22131 14.888C8.59535 16.192 9.68304 17.14 10.9716 17.167C9.76321 18.2353 8.18306 18.7279 6.61225 18.526C7.93892 19.4836 9.51246 19.9976 11.1247 20C16.5392 20 19.501 15 19.501 10.662C19.501 10.52 19.4981 10.378 19.4924 10.238C20.0745 9.76702 20.572 9.19176 20.9618 8.539C20.4276 8.80337 19.8567 8.97785 19.2704 9.056Z" fill="white"/>
</svg>
