<svg width="17" height="18" viewBox="0 0 17 18" fill="none" xmlns="http://www.w3.org/2000/svg">
<path d="M5.34616 15.9068C11.7613 15.9068 15.2701 10.5919 15.2701 5.98285C15.2701 5.83189 15.2701 5.68161 15.2599 5.53201C15.9425 5.03827 16.5317 4.42693 17 3.72661C16.3635 4.00881 15.6882 4.19379 14.9967 4.27537C15.7249 3.83952 16.2698 3.15392 16.5301 2.34621C15.8455 2.75251 15.0964 3.03884 14.3154 3.19281C13.7895 2.63363 13.094 2.26336 12.3365 2.13929C11.579 2.01522 10.8017 2.14427 10.1249 2.50647C9.44811 2.86867 8.90957 3.44382 8.59261 4.14293C8.27564 4.84204 8.19793 5.62612 8.37148 6.37385C6.9848 6.30429 5.62824 5.94391 4.38986 5.31611C3.15148 4.68831 2.05896 3.80712 1.1832 2.72973C0.737183 3.49756 0.600576 4.40651 0.801196 5.27153C1.00181 6.13654 1.52458 6.89257 2.26304 7.38569C1.70796 7.36942 1.16496 7.21968 0.68 6.94913V6.99333C0.68022 7.7986 0.958978 8.579 1.46899 9.20217C1.97901 9.82534 2.68888 10.2529 3.4782 10.4124C2.96472 10.5524 2.42595 10.5729 1.90332 10.4722C2.12629 11.1652 2.56022 11.7712 3.14446 12.2055C3.7287 12.6397 4.43404 12.8806 5.16188 12.8944C4.43873 13.4628 3.6106 13.8831 2.72487 14.1311C1.83914 14.3792 0.913194 14.4502 0 14.34C1.59505 15.3636 3.45095 15.9065 5.34616 15.904" fill="#1DA1F2"/>
</svg>
