<svg width="26" height="26" viewBox="0 0 26 26" fill="none" xmlns="http://www.w3.org/2000/svg">
<path fill-rule="evenodd" clip-rule="evenodd" d="M11.1486 15.665L11.1477 10.608L15.8007 13.145L11.1486 15.665ZM21.3635 9.731C21.3635 9.731 21.1952 8.491 20.6795 7.945C20.0242 7.228 19.2905 7.225 18.9538 7.182C16.544 7 12.9299 7 12.9299 7H12.9222C12.9222 7 9.30806 7 6.89831 7.182C6.56157 7.224 5.82784 7.228 5.17255 7.945C4.65596 8.491 4.48855 9.731 4.48855 9.731C4.48855 9.731 4.31636 11.189 4.31636 12.645V14.009C4.31636 15.466 4.48855 16.922 4.48855 16.922C4.48855 16.922 4.65692 18.162 5.17255 18.709C5.82784 19.426 6.68785 19.403 7.07146 19.479C8.44901 19.617 12.926 19.659 12.926 19.659C12.926 19.659 16.544 19.654 18.9538 19.472C19.2905 19.43 20.0252 19.426 20.6795 18.709C21.1961 18.163 21.3635 16.922 21.3635 16.922C21.3635 16.922 21.5357 15.466 21.5357 14.009V12.644C21.5357 11.187 21.3635 9.73 21.3635 9.73V9.731Z" fill="white"/>
</svg>
